<svg id="Layer_1" data-name="Layer 1" xmlns="http://www.w3.org/2000/svg" viewBox="0 0 500 500"><defs><style>.cls-1{fill:#6067af;}</style></defs><title>ForgeLogo</title><path class="cls-1" d="M428.61,72c-.5,2.72-2.17,4.93-3.47,7.24-4.22,7.53-8.28,15.14-12.62,22.61-3.93,6.78-7.78,13.61-11.62,20.44-2.37,4.2-4.67,8.45-7,12.65a2.55,2.55,0,0,0,.43,3.37c3.53,3.34,5.95,7.53,8.57,11.53a40.94,40.94,0,0,1,4.8,8.58,1.6,1.6,0,0,0,2.08,1.08c7.06-1.64,14.17-3.11,21.2-4.87,2.18-.55,3.11-.06,3.95,2,3.45,8.43,7,16.82,10.69,25.13.7,1.56-.2,2-.93,2.43-6.41,3.38-12.23,7.64-18.3,11.54-1.39.9-1.36,1.61-1,2.89,1.06,3.59,2,7.21,3,10.83a9.92,9.92,0,0,1,0,2.27c-2-.59-4-1-5.82-1.79-8.42-3.38-17.22-5.62-25.77-8.6a4.52,4.52,0,0,1-3.16-3.62,59.69,59.69,0,0,0-3.27-8.75,138.25,138.25,0,0,0-8.64-16.71c-1.12-2-2.42-3.83-3.59-5.77-1-1.63-1.84-1.24-2.69.26-3.88,6.82-7.89,13.58-11.71,20.44-2.46,4.42-4.69,9-7,13.53,7.3,2.84,14.92,4.71,22.29,7.28,6.49,2.25,13.07,4.26,19.55,6.57,5.05,1.79,10.13,3.61,15.37,4.93,3,.76,5.85,2.17,8.85,3.13,7.87,2.5,15.62,5.35,23.42,8,7.15,2.46,14.28,5,21.46,7.31Q481,242.29,494.24,247c2.44.87,5,1.34,7.64,2.58-3.84,2.29-8,3.15-12,4.36-3.23,1-6.47,2.17-9.63,3.27-5.83,2-11.7,4-17.55,6-7.74,2.59-15.4,5.5-23.33,7.56-2.34.61-4.6,1.58-6.93,2.31-10.46,3.28-20.84,6.82-31.23,10.29-10.23,3.42-20.42,6.92-30.66,10.31a116.46,116.46,0,0,0-12.54,4.4c-.89.41-1.39.71-.86,1.68,2.33,4.22,4.73,8.41,7,12.67,2.72,5.08,5.84,9.93,8.42,15.09,1,1.92,2.28,3.68,3.22,5.65.53,1.13,1.49,1.58,2.26.16,3.67-6.73,7.85-13.17,10.86-20.28,1.1-2.61,2.4-5.19,3.57-7.8a13.3,13.3,0,0,0,1-2.67,5.59,5.59,0,0,1,3.62-4.5c8-3.41,16.49-5.5,24.6-8.64,2.29-.88,4.74-1.67,7.51-2.46-.45,1.92-.75,3.66-1.27,5.32-.91,2.9-1.88,5.79-3,8.62-.43,1.1-.09,1.58.76,2.13,4.81,3.06,9.57,6.23,14.44,9.21,1.7,1,3,2.64,4.86,3.41,1.27.52,1.26,1.4.67,2.66-3.45,7.38-6.79,14.82-10.15,22.24-.71,1.56-.19,3.92-2.23,4.57-1.78.57-3.57-.52-5.35-1-5.85-1.45-11.72-2.77-17.54-4.29-1.55-.41-2.15.53-2.65,1.43a126.24,126.24,0,0,1-12.6,18.84c-3.41,4.15-.09,6.3,1.2,8.88,3.52,7,7.52,13.78,11.35,20.63,4.39,7.84,8.82,15.65,13.19,23.49,2.84,5.09,5.61,10.21,8.57,15.63-2.53-.45-4.06-2.12-5.9-3.1-7.8-4.13-15.42-8.6-23.13-12.91-7.39-4.13-14.82-8.17-22.18-12.34-4.45-2.52-8.8-5.22-13.19-7.83-.57-.34-.95-.73-1.8-.1q-8.43,6.25-17,12.31a20.31,20.31,0,0,1-4.69,2.72c-1.71.6-1.62,1.44-1.2,2.79,2.15,7,3.28,14.3,5,21.44.21.87.13,1.36-1,1.92-8.28,4.06-17,7.1-25.28,11.15a1.89,1.89,0,0,1-2.83-.76c-3.88-5.82-7.93-11.53-11.26-17.71-1-1.83-2.24-2.93-4.82-1.63-3.71,1.88-8,2.27-12.31,4.3,1.37-4.24,2.57-8,3.82-11.75,2.16-6.52,4.51-13,6.23-19.64a5.53,5.53,0,0,1,3.48-4c4.35-2,8.73-3.88,13.07-5.85,5.21-2.37,10.21-5.11,15.27-7.74a56,56,0,0,0,5.67-3.83c-4.88-2.55-9.43-5.41-14.14-8s-9.7-5.22-14.41-8.08c-2.07-1.26-4.34-2.19-6.45-3.38-1.18-.66-1.72-.36-2.1.83q-2.62,8.06-5.29,16.1c-.76,2.32-1.72,4.54-2.43,6.9-1.77,5.9-4.05,11.65-5.92,17.53-2.52,7.95-5.24,15.84-7.68,23.82-1.19,3.9-2.7,7.75-3.9,11.65-1.78,5.82-4,11.47-5.53,17.38-.68,2.67-1.76,5.28-2.61,7.93-2.22,6.95-4.59,13.85-6.93,20.76-2,5.94-4,11.86-6.07,17.79a9.2,9.2,0,0,0-.63,2c-.09.84-.15,1.75-1.13,1.79s-.86-1-1-1.74c-.81-3.12-2.07-6.1-3.09-9.15-2-6-4-12.06-6-18.09-2.51-7.68-5.33-15.26-7.57-23-1.59-5.5-3.88-10.78-5.59-16.25-1.89-6-4.08-12-6-18-1.82-5.7-3.94-11.34-5.77-17-1.94-6-4.27-11.95-5.82-18.11-.75-2.95-2-5.74-2.89-8.68-1.29-4.42-2.8-8.79-4-13.26-.31-1.23-.69-2.27-2.46-1.2-3.6,2.19-7.37,4.11-11.06,6.16-6,3.33-11.92,6.64-17.85,10-1.8,1-3.4,2.38-5.37,3.17-.94.37-.79,1,.12,1.45,5.34,2.81,10.59,5.8,16,8.44,5.85,2.85,11.82,5.45,17.82,8,1.85.78,2.4,2.22,2.84,3.78,1.86,6.61,4.19,13.07,6.27,19.61,1.15,3.6,2.89,7.07,3.24,11.08-3.93-1.19-7.78-2.26-11.55-3.52-2.9-1-3.74-.54-5.28,2.17-2.57,4.51-5.37,8.88-8.09,13.3-.71,1.16-1.57,2.24-2.19,3.44-.91,1.73-2,1.78-3.64.95a188.48,188.48,0,0,0-21.58-9.12c-1.55-.56-2.82-1.76-4.51-2-1.1-.17-.55-.87-.41-1.39,1.92-7.36,2.94-14.93,5.26-22.2.37-1.16.19-1.65-1.06-2.39-6.71-3.95-13.36-8-19.33-13.08-2.21-1.87-3.73-1.79-6.86,0-6.68,3.8-13.48,7.38-20.19,11.13-6.12,3.44-12.17,7-18.28,10.47S82.18,422.89,76,426.23c-1.45.79-2.49,2.26-4.38,2.55.09-2.63,1.88-4.46,3-6.43,3.9-6.74,7.74-13.51,11.32-20.43,2.7-5.22,5.86-10.21,8.7-15.36,2.61-4.74,5-9.58,7.61-14.33,1.21-2.21,2.54-4.36,3.92-6.47a3.45,3.45,0,0,0-.27-4.53c-3.1-4-5.88-8.18-8.58-12.45a68.64,68.64,0,0,1-4.62-7.8c-.33-.7-1-1.48-1.87-1.08-1.74.8-3.63.4-5.42,1-5.32,1.74-11,2.29-16.27,4.18-1.84.66-3.12.05-3.9-2.15-1.76-5-3.88-9.85-5.89-14.74-1.48-3.61-2.92-7.24-4.6-10.76-.52-1.1-.07-1.45.6-1.86,5.34-3.32,10.37-7.12,15.94-10.08,1.15-.61,2.15-1.48,3.29-2.08.91-.47.76-1.16.54-1.78-1.17-3.3-1.11-6.91-2.64-10.11a3.79,3.79,0,0,1-.42-1.24c-.07-.86-.38-2,0-2.53.62-.75,1.55.19,2.35.42,8.26,2.35,16.21,5.67,24.49,8,3.78,1.06,7,2.59,8.42,7.36,2,6.47,5.16,12.6,8.57,18.55,1.7,3,3.4,6,4.94,9a7.68,7.68,0,0,0,2.65,3.34c2.61-3.44,4.37-7.36,6.56-11s4.06-7.24,6-10.88c2.35-4.29,4.67-8.6,7-12.89.6-1.1-.16-1.21-.92-1.63-3.4-1.88-7.21-2.64-10.8-4-3.9-1.43-8-2.52-11.91-3.85-7-2.35-14-4.62-21.08-6.9-8.36-2.72-16.82-5.15-25.05-8.19-5.9-2.17-11.88-4.06-17.83-6-5.6-1.86-11.16-3.89-16.84-5.54-3.65-1.06-7.25-2.48-10.89-3.69-5.85-2-11.83-3.57-17.58-5.77-4-1.53-8.25-2.28-12.2-4.47,3.49-2.2,7.5-3,11.26-4.15,3.41-1,6.83-2.15,10.16-3.29,5.92-2,11.88-4,17.81-6,7.73-2.59,15.38-5.44,23.28-7.55,3.86-1,7.55-2.65,11.35-3.9,7.84-2.58,15.71-5.06,23.55-7.65,3.72-1.23,7.34-2.76,11.08-3.88,8.08-2.41,15.87-5.66,24-7.8,4.13-1.09,8.1-2.73,12.15-4.09.78-.26,1.26-.43.7-1.42-2.46-4.26-4.84-8.57-7.26-12.85-2.71-4.78-5.49-9.53-8.11-14.37a64.25,64.25,0,0,1-3.44-6.13c-.69-1.66-1.9-1.68-2.85-.09-1.78,3-3.59,5.91-5.19,9-2.13,4-4,8.22-6.08,12.31a97.72,97.72,0,0,0-4.44,11.42c-.36,1-1,1.32-1.91,1.78-5.37,2.58-11.14,4-16.72,5.94-5.09,1.76-10.26,3.3-15.51,5a17.28,17.28,0,0,1,.9-6.4c.84-2.56,1.41-5.22,2.14-7.82.24-.83,0-1.19-.76-1.65-4.91-3-9.78-6.12-14.65-9.21-1.38-.87-2.35-2.25-4-2.87-.71-.27-1.28-1-.71-2.29,3.32-7.74,6.14-15.68,9.71-23.32a4.19,4.19,0,0,0,.2-.49c1.72-4.43,1.78-4.45,6.43-3,6.26,1.94,12.75,2.9,19.08,4.54,1.52.4,1.94-.53,2.36-1.41a74.64,74.64,0,0,1,4.16-7.14,99.67,99.67,0,0,1,9.3-13,2.15,2.15,0,0,0,.34-2.84c-4.33-7.57-8.64-15.15-12.85-22.79-3.46-6.24-6.72-12.59-10.18-18.84-2.5-4.53-5.18-9-7.74-13.45-1.79-3.14-3.49-6.32-5.39-9.75,3.23.79,5.52,2.77,8.13,4.06,5,2.47,9.78,5.4,14.65,8.14,5.21,2.92,10.41,5.86,15.62,8.76,5.94,3.31,11.94,6.52,17.81,9.94,2.7,1.56,5.49,3,8,4.78,2.16,1.52,3.54.29,4.75-.65a147.66,147.66,0,0,1,19.91-13.42c1.08-.59,1.18-1.18.78-2.32-2.56-7.2-3.23-14.85-5.34-22.17-.27-1,.28-1,.9-1.45,3.24-2.24,7-3.29,10.55-4.85,4.84-2.15,9.73-4.18,14.63-6.2,2.63-1.09,3.79-.46,5.42,2.87,2.25,4.62,5.56,8.56,8.16,13,.25.43.7.69.93,1.22,1.44,3.26,1.93,3.35,5.2,2.37s6.63-1.53,9.82-2.77c1.11-.43,1.61-.06,1.38,1.22-.76,4.14-2.34,8-3.6,12-1.81,5.7-4.07,11.27-5.57,17.08-.52,2-1.26,3.46-3.86,4.23-4.37,1.29-8.39,3.75-12.63,5.54-5.42,2.29-10.32,5.58-15.65,8-1.84.86-3.15,2.66-5.93,3.07,4,2.37,7.3,4.4,10.66,6.34C178.68,131,182.33,133,186,135c4.72,2.64,9.47,5.23,14.14,7.95,1.16.67,1.67.5,2-.67,1.59-5.34,3.24-10.65,4.75-16,.81-2.85,1.93-5.62,2.91-8.39,2-5.73,4-11.52,5.88-17.28,2.65-8,5.51-15.91,7.72-24,.79-2.91,2.1-5.69,3-8.6,1.81-5.62,4.1-11.08,5.77-16.74,2.34-7.92,5.22-15.67,7.76-23.52,1.91-5.94,3.9-11.9,6-17.81,1.14-3.27,3-6.33,3.41-9.85.06-.45.46-1.15.8-1.22.79-.14.89.73,1.06,1.25,2.26,6.67,4.63,13.31,6.68,20.05,2.23,7.33,4.78,14.54,7.35,21.75,2.43,6.79,4.6,13.67,7,20.48s4.72,13.64,6.89,20.52c2.21,7,4.62,14,6.89,21,2.57,7.94,4.63,16,7.36,23.91,1.59,4.6,3.38,9.15,5,13.76.73,2.16,1.95,1.23,3,.68,3.49-1.85,6.93-3.82,10.38-5.74,5.89-3.28,11.79-6.52,17.64-9.86a47.42,47.42,0,0,1,5.39-3.15c.9-.37.89-.93-.05-1.46-5.34-3-10.55-6.18-16-9a159.91,159.91,0,0,0-16.44-7.34,6.33,6.33,0,0,1-4.11-4.25q-2-5.52-3.82-11.09c-2.05-6.28-4-12.57-6.19-19.35,4.55,1.16,8.73,2,12.71,3.34,2.32.81,3.47,0,4.29-1.75,2.8-6,6.83-11.28,10.31-16.88,1.12-1.8,2.43-2.09,4.08-1.16,4.48,2.5,9.43,3.92,14,6.18,3.18,1.57,6.53,2.79,9.86,4,1.69.64,1.86,1.71,1.55,3.28-1.33,6.68-2.43,13.4-4.6,19.89-.56,1.67,0,2.85,1.76,4,6.42,4.25,13.23,8,19,13.21,2.22,2,4.27,1.08,6.38-.19,5-3,10-5.86,15.08-8.61,6.24-3.36,12.24-7.15,18.48-10.5,6.63-3.56,13.06-7.46,19.88-10.68a52.12,52.12,0,0,0,7.32-3.92Zm-309.9,45c-.69.15-1.17-.87-2-.38.64.63,1.2,1.22,2,.33-1,.6-.21,1.5.08,1.67,1.33.78,1.91,2.21,3,3.15,3,2.55,5.6,5.58,8.45,8.32,2.69,2.58,5.27,5.26,7.85,8s5.65,5.32,8.4,8.07c3.52,3.52,6.92,7.16,10.41,10.71,2.7,2.75,5.41,5.52,8.23,8.16s5.38,5.4,8,8.13c3.4,3.5,6.94,6.85,10.41,10.28,2.82,2.79,5.59,5.63,8.42,8.42,3.43,3.37,7.09,6.53,10.28,10.12,2.58,2.91,5.57,5.39,8.14,8.31s5.7,5.53,8.5,8.34c2.62,2.63,5.08,5.41,7.71,8,3.42,3.39,7,6.59,10.38,10A129.64,129.64,0,0,0,250.2,249c-2.37-8.91-4.61-17.41-6.9-25.89-1.13-4.22-2.41-8.41-3.46-12.64-2.23-8.88-4.42-17.77-7-26.57a2.55,2.55,0,0,0-1.25-1.67c-3-2-6.08-3.87-9.16-5.74s-6.13-3.94-9.36-5.58c-6.22-3.15-12.11-6.86-18.21-10.21-5.08-2.78-10.1-5.67-15.14-8.52-4.68-2.65-9.38-5.28-14.05-8s-9.39-5.53-14.11-8.25c-6-3.43-12-6.78-18-10.22C128.62,122.85,123.68,119.91,118.71,117Zm264.49,0a46,46,0,0,0-5.11,5c-3.38,3.36-6.84,6.66-10.12,10.09-4.25,4.43-8.69,8.66-13,13-3.33,3.4-7,6.55-10.24,10-4.29,4.46-8.71,8.79-13.1,13.13-7.27,7.17-14.5,14.38-21.91,21.41-6.78,6.45-13,13.49-19.58,20.15-5.71,5.76-11.6,11.33-17.39,17q-5.5,5.42-10.94,10.89c-3.32,3.33-6.61,6.69-9.9,10-.3.31-.74.63-.53,1.12.38.84,1,.36,1.59.22,4.05-1.08,8.06-2.29,12.13-3.23,3.67-.85,7.21-2.15,10.85-3,7.73-1.8,15.4-3.79,23.06-5.87,4.2-1.14,8.39-2.72,12.67-3.11,4.7-.43,7.27-2.68,9.26-6.64,2.63-5.22,5.69-10.23,8.54-15.35q2.78-5,5.72-9.91c3.8-6.35,7.32-12.85,11-19.28,1.84-3.22,3.74-6.4,5.58-9.62,2.57-4.51,5.08-9,7.67-13.54,2.71-4.71,5.49-9.37,8.2-14.07s5.47-9.56,8.19-14.34q3.89-6.84,7.74-13.68c.45-.12.55-.53.3-.75S383.41,116.83,383.2,117ZM249.05,249.88c-4.32,1.08-8.66,2.12-13,3.25-11.38,3-22.74,6.06-34.12,9.06-4.89,1.29-9.85,2.32-14.67,3.82-2.42.76-5.16,1.2-6.4,4.33a30.6,30.6,0,0,1-2.5,4.56q-5.35,8.67-10.58,17.44-5.38,9.09-10.59,18.29c-1.84,3.26-3.82,6.44-5.74,9.66-2.85,4.79-5.44,9.74-8.21,14.58-2,3.47-4.09,6.85-6.07,10.31-2.56,4.49-5,9.05-7.57,13.54-3.59,6.3-7.43,12.47-10.76,18.91-.86,1.65-2.56,3.15-2.35,5.46,1.86-.81,2.86-2.43,4.14-3.68,4.57-4.44,9-9,13.52-13.52,3.31-3.27,6.72-6.46,10-9.77,4.51-4.59,9.12-9.08,13.62-13.67,3.21-3.28,6.64-6.34,9.73-9.69,4.21-4.56,8.7-8.83,13-13.23,3.32-3.36,6.78-6.63,10.12-10q6.83-6.81,13.63-13.65c3.24-3.24,6.56-6.4,9.71-9.7,2.8-2.94,5.79-5.7,8.57-8.66,3.18-3.38,6.8-6.35,10-9.74,3.57-3.85,7.39-7.45,11-11.24,2-2.09,4.35-3.85,6-6.24l.52-.7A.72.72,0,0,0,249.05,249.88ZM383.77,383.76l.41-.49L250.82,250.11c.33,5.93,2.54,10.76,3.75,15.82,1,4.23,2.17,8.46,3.32,12.66.93,3.37,2,6.69,2.86,10.08q3.21,13.23,6.37,26.45a3.16,3.16,0,0,0,1.69,2.38c3.39,1.84,6.63,4,9.94,6,2.9,1.73,5.78,3.5,8.72,5.15,6.15,3.45,12.34,6.81,18.5,10.25,3.63,2,7.2,4.14,10.82,6.17,4.79,2.69,9.61,5.33,14.42,8,3.63,2,7.28,4,10.89,6,3.43,1.95,6.79,4,10.21,6,3.09,1.77,6.09,3.72,9.21,5.41,4.78,2.58,9.31,5.57,14,8.33C378.27,380.41,381,382.09,383.77,383.76Zm51-134.19c-43.34,1.67-86.43,6.4-130.16,9.56,1.47,1.6,2.6,3,3.87,4.17,7.07,6.68,14.13,13.35,20.44,20.77a2.43,2.43,0,0,0,2.94.77c2.17-.69,4.18-1.81,6.32-2.43,6.17-1.81,12.11-4.28,18.23-6.19,3.33-1.05,6.56-2.41,9.88-3.38,5.84-1.69,11.6-3.62,17.39-5.46,3.22-1,6.35-2.35,9.56-3.43,6.39-2.16,12.76-4.43,19.24-6.29,3.36-1,6.55-2.37,9.88-3.34A65.43,65.43,0,0,0,434.79,249.57Zm-372.23.83c3.06-.3,6.11-.84,9.17-.88,12-.16,23.84-2,35.82-2.45,14.4-.58,28.77-2.07,43.13-3.48,6.83-.67,13.69-.78,20.52-1.46s13.61-1.83,20.51-1.67c1.15,0,2.84.67,3.38-.43.63-1.29-1.46-1.4-2-2.39a6.7,6.7,0,0,0-1.32-1.6c-3.4-3.35-7-6.52-10.19-10-3.43-3.77-7.28-7.07-11-10.54a2.44,2.44,0,0,0-2.64-.57c-8,2.63-16.08,5.06-24.06,7.76-3.79,1.28-7.57,2.72-11.37,3.91-8.21,2.56-16.34,5.39-24.52,8.06-6.94,2.27-13.8,4.79-20.77,6.95-3.9,1.22-7.72,2.67-11.6,3.93C71.25,246.94,66.84,248.52,62.56,250.4ZM250.71,436.69c-3.14-44.15-6.75-88.15-10.11-132.28-.84.88-1.76,1.17-2.4,1.82q-11.2,11.32-22.42,22.62c-.64.64-1,1-.57,2,.77,1.58.91,3.36,1.43,5,3.1,9.88,6.19,19.76,9.57,29.55,2.3,6.66,4.69,13.28,6.94,19.95,2.74,8.14,5.74,16.19,8.58,24.3,1,2.78,1.77,5.62,2.7,8.42C246.51,424.26,248.62,430.47,250.71,436.69Zm-.4-372.22-.71.07c3.26,43.62,6.52,87.24,9.82,131.3,8.57-9.08,17.16-17.45,25.73-25.83a1.52,1.52,0,0,0,.33-2c-1.62-3.92-3.12-7.89-4.57-11.87-2.33-6.37-4.45-12.81-6.61-19.24-3.12-9.32-6-18.73-9.07-28.06-2.13-6.42-4.14-12.9-6.5-19.25-1-2.65-2-5.35-2.77-8.11C254.33,75.73,252.22,70.13,250.31,64.47Z"/></svg>